<svg width="563" height="1000" viewBox="0 0 563 1000" fill="none" xmlns="http://www.w3.org/2000/svg">
<g opacity="0.3" clip-path="url(#clip0_1_4106)">
<path fill-rule="evenodd" clip-rule="evenodd" d="M-48.9001 206.864C-53.0405 292.742 -108.796 299.629 -173.616 314.489C-221.733 325.503 -245.511 354.075 -257.028 401.797C-279.88 496.353 -282.674 588.514 -315.697 684.56C-361.363 817.334 -350.771 913.703 -395.893 1099.59C-404.435 1134.81 -398.024 1145.87 -366.046 1196.57C-350.831 1220.69 -335.314 1207.66 -343.153 1178.34C-351.152 1148.32 -350.368 1125.89 -344.459 1109.26C-334.53 1081.31 -323.516 1075.79 -322.089 1027.63C-317.748 881.727 -237.29 803.038 -214.357 667.445C-205.272 613.784 -191.404 581.869 -174.983 517.556C-175.043 548.846 -170.701 565.68 -159.345 600.857C-136.091 672.821 -159.406 740.336 -184.891 831.348C-204.347 900.816 -203.021 924.173 -211.583 993.762C-218.317 1048.61 -221.271 1093.94 -213.352 1148.28C-201.172 1232.01 -171.023 1324.23 -155.607 1406.46C-146.321 1455.97 -133.839 1492.5 -146.381 1551.07C-176.289 1690.87 -113.921 1896.4 -85.6617 2035.8C-76.0542 2083.14 -70.5871 2110.76 -93.0179 2152.02C-99.4496 2163.84 -96.4951 2175.54 -81.1593 2176H-30.8108C-14.0882 2175.76 -8.37994 2167.24 -8.52063 2151.56C-8.802 2119.94 -16.7815 2080.42 -21.3641 2032.11C-28.3586 1958.72 -12.239 1710.31 -20.9821 1620.76C-27.5948 1553.19 -13.0632 1504.56 -12.0984 1439.84C-9.70663 1277.63 -4.70184 1235.75 -11.1135 1136.26C-11.9778 1123.01 -4.36023 1116.31 3.27747 1116.27C10.8951 1116.31 18.5328 1123.01 17.6484 1136.26C11.2368 1235.75 16.2415 1277.63 18.6534 1439.84C19.5981 1504.56 34.1296 1553.19 27.5371 1620.76C18.7738 1710.31 34.8936 1958.72 27.8991 2032.11C23.3164 2080.42 15.3369 2119.94 15.0756 2151.56C14.9349 2167.24 20.6432 2175.76 37.3457 2176H87.7143C103.03 2175.54 105.985 2163.84 99.5528 2152.02C77.1221 2110.76 82.5891 2083.14 92.1966 2035.8C120.456 1896.4 182.824 1690.87 152.916 1551.07C140.374 1492.5 152.856 1455.97 162.142 1406.46C177.558 1324.23 207.727 1232.01 219.887 1148.28C227.806 1093.94 224.852 1048.61 218.118 993.762C209.556 924.173 210.882 900.816 191.426 831.348C165.94 740.336 142.625 672.821 165.88 600.857C177.236 565.68 181.578 548.846 181.518 517.556C197.939 581.869 211.827 613.784 220.892 667.445C243.825 803.038 324.282 881.727 328.624 1027.63C330.051 1075.79 341.065 1081.31 350.994 1109.26C356.903 1125.89 357.707 1148.32 349.688 1178.34C341.849 1207.66 357.366 1220.69 372.581 1196.57C404.579 1145.87 410.991 1134.81 402.428 1099.59C357.305 913.703 367.898 817.334 322.252 684.56C289.209 588.514 286.415 496.353 263.563 401.797C252.046 354.075 228.268 325.503 180.151 314.489C115.331 299.629 59.5754 292.742 55.455 206.864H-48.9001Z" fill="#EBEBEB"/>
<path fill-rule="evenodd" clip-rule="evenodd" d="M-103.509 80.3725C-106.584 81.0169 -109.398 82.6881 -110.926 86.0508C-115.77 96.8434 -103.208 115.449 -98.5245 139.954C-96.3739 151.149 -90.3644 156.102 -85.3195 152.74C-79.6917 167.096 -72.3753 180.064 -63.7929 191.078C-45.2212 214.959 -23.0518 229.738 3.25811 229.738C29.5881 229.738 51.7574 214.959 70.3291 191.078C78.9115 180.064 86.2275 167.076 91.8553 152.74C96.9002 156.102 102.91 151.149 105.061 139.954C109.744 115.449 122.306 96.8434 117.462 86.0508C115.954 82.668 113.121 81.017 110.066 80.3928C114.769 51.2566 115.352 18.8787 101.342 -12.2911C84.057 -50.8104 44.2204 -70.0199 3.25811 -69.9997C-37.684 -69.9997 -77.5208 -50.8104 -94.8062 -12.2911C-108.815 18.8787 -108.213 51.2565 -103.509 80.3725Z" fill="white"/>
</g>
<defs>
<clipPath id="clip0_1_4106">
<rect width="1126" height="2246" fill="white" transform="translate(-563 -70)"/>
</clipPath>
</defs>
</svg>
